# xmcd
#
# Track frame offsets: 
#        150
#        4719
#        19562
#        29691
#        48353
#        60397
#        74874
#        85993
#        98097
#        109589
#
# Disc length: 1502 seconds
#
# Revision: 0
# Processed by: cddbd v1.5.2PL0 Copyright (c) Steve Scherf et al.
# Submitted via: ExactAudioCopyFreeDBPlugin 1.0
#
DISCID=7b05dc0a
DTITLE=Joel Grind - Yellowgoat
DYEAR=2013
DGENRE=Black/Speed Metal
TTITLE0=Ascension
TTITLE1=Hell's Master Of Hell
TTITLE2=Vengeance Spell
TTITLE3=Foul Spirit Within
TTITLE4=Cross Damnation
TTITLE5=Grave Encounters
TTITLE6=Black Order
TTITLE7=The Eternal One
TTITLE8=Hail To Cruelty
TTITLE9=Descension
EXTD=
EXTT0=
EXTT1=
EXTT2=
EXTT3=
EXTT4=
EXTT5=
EXTT6=
EXTT7=
EXTT8=
EXTT9=
PLAYORDER=
